Coordinates
version=1
nRows=26
nColumns=24
inDegrees=yes

Units are S.I. units (second, meters, Newtons, ...)
Angles are in degrees.

endheader
time	pelvis_tilt	pelvis_list	pelvis_rotation	pelvis_tx	pelvis_ty	pelvis_tz	hip_flexion_r	hip_adduction_r	hip_rotation_r	knee_angle_r	ankle_angle_r	subtalar_angle_r	mtp_angle_r	hip_flexion_l	hip_adduction_l	hip_rotation_l	knee_angle_l	ankle_angle_l	subtalar_angle_l	mtp_angle_l	lumbar_extension	lumbar_bending	lumbar_rotation
      2.14500000	     -5.29658068	     -2.09998503	     -4.81788919	      0.52455847	      1.27515644	     -0.91744257	      1.09541810	      6.05454816	      3.83684875	    -37.92916132	    -11.92137043	      6.70061753	     18.16493075	     22.75976021	      3.07571290	      1.84561778	    -13.33416349	     -7.23074395	    -18.23290858	      1.22098316	     -1.91908840	     -0.62481685	      2.08211826
      2.15000000	     -5.24954387	     -1.90169192	     -4.54545754	      0.53044320	      1.27585211	     -0.91807057	      1.78022725	      5.52359675	      2.73421450	    -39.26033219	    -13.08910221	      6.49263741	     17.92892030	     22.16196170	      3.44520835	      1.99622439	    -13.07065333	     -6.98610057	    -18.05403225	      1.21933822	     -1.86006780	     -0.96239340	      1.74013470
      2.15500000	     -5.24225813	     -1.70216753	     -4.30795590	      0.53626836	      1.27651337	     -0.91867684	      2.52241193	      4.99815206	      1.74743044	    -40.59359963	    -14.19403460	      6.24612219	     16.68506021	     21.57372712	      3.80024556	      2.16021606	    -12.74447476	     -6.80041956	    -17.97106333	      1.12084415	     -1.75548070	     -1.29859282	      1.49066176
      2.16000000	     -5.20914498	     -1.51530962	     -4.04229098	      0.54201678	      1.27717439	     -0.91932894	      3.23267452	      4.46522806	      0.75986049	    -41.87919270	    -15.01358224	      5.81878114	     16.51742042	     20.96326364	      4.14836713	      2.32709913	    -12.42088356	     -6.59919124	    -17.77113748	      1.12685581	     -1.70357482	     -1.61567457	      1.17315570
      2.16500000	     -5.18665082	     -1.36547453	     -3.78765744	      0.54770418	      1.27781599	     -0.91998953	      3.93767975	      3.99029472	     -0.13124150	    -43.10489613	    -15.81200097	      5.22067705	     15.15152800	     20.36235883	      4.45517726	      2.49172382	    -12.10055380	     -6.36356486	    -17.71360228	      1.02806652	     -1.65323223	     -1.87810814	      0.84292359
      2.17000000	     -5.17266116	     -1.24292701	     -3.50911639	      0.55333903	      1.27844799	     -0.92069609	      4.64078298	      3.53971957	     -1.00388980	    -44.25871262	    -16.35709866	      4.44305846	     14.84408622	     19.76299720	      4.73803933	      2.72427740	    -11.76444541	     -6.09153504	    -17.58831052	      1.02170606	     -1.60601135	     -2.10704439	      0.47640766
      2.17500000	     -5.15187640	     -1.12340839	     -3.24383341	      0.55886496	      1.27907810	     -0.92139198	      5.34374454	      3.10453135	     -1.79186132	    -45.37693558	    -16.68292823	      3.58601750	     14.49400091	     19.15073963	      5.00560198	      2.94383597	    -11.40558474	     -5.90556693	    -17.43279858	      1.00777401	     -1.58458782	     -2.32621018	      0.14104214
      2.18000000	     -5.13951127	     -1.03492142	     -3.00628355	      0.56437572	      1.27971574	     -0.92205770	      6.03788421	      2.72089254	     -2.50094554	    -46.41324018	    -16.97590370	      2.65067690	     13.19521608	     18.53841669	      5.22563455	      3.09503841	    -11.04050663	     -5.64674824	    -17.34589842	      0.90727893	     -1.55370207	     -2.50359272	     -0.17084347
      2.18500000	     -5.14214458	     -0.98312020	     -2.72661285	      0.56981577	      1.28032848	     -0.92279953	      6.72960907	      2.37874216	     -3.20755414	    -47.35596223	    -16.99001819	      1.58153995	     12.93099797	     17.95382951	      5.41902317	      3.35204977	    -10.69027902	     -5.38211146	    -17.23391142	      0.90113339	     -1.52377815	     -2.62992506	     -0.55828320
      2.19000000	     -5.13432928	     -0.94548947	     -2.46740039	      0.57516874	      1.28094880	     -0.92350468	      7.40977695	      2.07281600	     -3.84055993	    -48.22983038	    -16.87578413	      0.41784705	     12.55440034	     17.35705205	      5.58265545	      3.57554576	    -10.33265717	     -5.13430396	    -17.12414337	      0.88311792	     -1.52149297	     -2.73986579	     -0.91462083
      2.19500000	     -5.13515473	     -0.92533097	     -2.21100088	      0.58043891	      1.28155906	     -0.92421043	      8.09593798	      1.80361566	     -4.41658362	    -49.03179804	    -16.58606530	     -0.76133475	     12.16038943	     16.77894369	      5.72035228	      3.81971332	     -9.98610998	     -4.90206601	    -16.99046434	      0.86935204	     -1.52337074	     -2.82193373	     -1.28366005
      2.20000000	     -5.13979797	     -0.92501549	     -1.95736064	      0.58569934	      1.28215935	     -0.92490293	      8.76706697	      1.56186925	     -4.97800105	    -49.73625140	    -16.20436833	     -1.99075330	     11.66543308	     16.20213850	      5.82923696	      4.02699568	     -9.63679051	     -4.61180885	    -16.87738036	      0.84565614	     -1.51594397	     -2.88395343	     -1.60960011
      2.20500000	     -5.15427786	     -0.93963479	     -1.70912513	      0.59083391	      1.28274923	     -0.92559133	      9.45410494	      1.36706692	     -5.45323873	    -50.37251566	    -15.63868798	     -3.17965446	     11.28180031	     15.64947663	      5.91421844	      4.27897769	     -9.29821285	     -4.38049542	    -16.73039541	      0.83563671	     -1.53182526	     -2.91478512	     -2.00297089
      2.21000000	     -5.18490831	     -0.97442090	     -1.46292601	      0.59598909	      1.28332097	     -0.92627103	     10.13515635	      1.20068657	     -5.92262509	    -50.90260671	    -15.00313980	     -4.41411562	     10.86207175	     15.11240349	      5.97097148	      4.50140413	     -8.96086497	     -4.10183879	    -16.61269001	      0.81977505	     -1.51361546	     -2.92234655	     -2.35499416
      2.21500000	     -5.21477625	     -1.01717224	     -1.22944520	      0.60104802	      1.28387158	     -0.92691891	     10.82034789	      1.06874419	     -6.32578988	    -51.36290168	    -14.27253266	     -5.62026947	     10.42378413	     14.58754812	      6.00944317	      4.74240912	     -8.64027531	     -3.81770841	    -16.48139342	      0.80502495	     -1.51344465	     -2.91769711	     -2.69817349
      2.22000000	     -5.25399473	     -1.06610201	     -0.99851612	      0.60608148	      1.28440281	     -0.92755421	     11.50250166	      0.95496267	     -6.70252042	    -51.73376493	    -13.43251456	     -6.76216753	     10.02036480	     14.07668623	      6.03484048	      4.96180021	     -8.32122044	     -3.54097044	    -16.35709700	      0.79219071	     -1.50872191	     -2.90374922	     -3.04232608
      2.22500000	     -5.30515099	     -1.14335252	     -0.79008400	      0.61103294	      1.28491272	     -0.92814719	     12.19454966	      0.91604527	     -6.98734555	    -52.01290229	    -12.55348353	     -7.91494740	      9.46815079	     13.59537535	      6.01768244	      5.19736992	     -8.03019473	     -3.22354294	    -16.22273997	      0.76258372	     -1.49704123	     -2.85622995	     -3.32450545
      2.23000000	     -5.33499003	     -1.18125290	     -0.59768622	      0.61594881	      1.28539853	     -0.92870775	     12.87241223	      0.83236498	     -7.23967532	    -52.25182824	    -11.47729610	     -8.81636090	      9.24373476	     13.08045687	      6.03376323	      5.39835002	     -7.70971611	     -2.99451831	    -16.12470785	      0.75935449	     -1.51601169	     -2.84688173	     -3.62180924
      2.23500000	     -5.42717651	     -1.26650761	     -0.36770547	      0.62083741	      1.28581713	     -0.92930087	     13.59525915	      0.82182662	     -7.49990588	    -52.36891775	    -10.61771823	     -9.94679955	      8.76078051	     12.66405814	      6.00573255	      5.68301024	     -7.44401376	     -2.66308224	    -15.99345583	      0.74071532	     -1.47910083	     -2.77905042	     -4.00726638
      2.24000000	     -5.47132211	     -1.32732325	     -0.20041891	      0.62569833	      1.28626174	     -0.92979397	     14.26607175	      0.81717242	     -7.64614791	    -52.42453201	     -9.49311254	    -10.76400381	      8.52396101	     12.17387823	      5.98136515	      5.86492244	     -7.13557932	     -2.42192789	    -15.92246264	      0.73221860	     -1.48540475	     -2.74408257	     -4.24055680
      2.24500000	     -5.59419455	     -1.43019828	      0.00246932	      0.63055894	      1.28661543	     -0.93030392	     15.00098384	      0.87564124	     -7.80697393	    -52.37459234	     -8.60117254	    -11.74420688	      7.76825240	     11.81201029	      5.91772211	      6.09418915	     -6.90712748	     -2.05696264	    -15.75367421	      0.68268557	     -1.40611811	     -2.65978943	     -4.55579130
      2.25000000	     -5.67957555	     -1.49222114	      0.18601329	      0.63538133	      1.28695552	     -0.93077810	     15.70162544	      0.89585600	     -7.91745680	    -52.28713617	     -7.56402735	    -12.45127380	      7.22255150	     11.38999223	      5.88908452	      6.31222610	     -6.63636438	     -1.75833980	    -15.62802230	      0.64097286	     -1.37706526	     -2.61984116	     -4.85436976
      2.25500000	     -5.73506013	     -1.54397962	      0.33410512	      0.64016416	      1.28729823	     -0.93118317	     16.36976305	      0.93823779	     -7.94419760	    -52.12840938	     -6.50740974	    -13.09448528	      7.04290248	     10.92219031	      5.85830386	      6.49273115	     -6.33446229	     -1.52410061	    -15.58238793	      0.63385924	     -1.38483578	     -2.59424484	     -5.08576790
      2.26000000	     -5.82165095	     -1.60792882	      0.50003736	      0.64494045	      1.28758383	     -0.93160122	     17.05614324	      1.00066588	     -7.97058847	    -51.89131957	     -5.50359829	    -13.71144003	      6.81827941	     10.50670798	      5.81736456	      6.69952579	     -6.06372198	     -1.26270934	    -15.52008853	      0.63299614	     -1.35560595	     -2.55100664	     -5.34232305
      2.26500000	     -5.96930184	     -1.69276419	      0.67632091	      0.64974016	      1.28777777	     -0.93201368	     17.78917309	      1.09443119	     -7.98767145	    -51.57592340	     -4.61018706	    -14.21835107	      6.07808815	     10.18847540	      5.75460640	      6.90625649	     -5.85536849	     -0.88400000	    -15.34978911	      0.61828091	     -1.25288275	     -2.48984390	     -5.61666032
      2.27000000	     -6.03068408	     -1.73779353	      0.81418525	      0.65447867	      1.28801425	     -0.93235607	     18.43647429	      1.17495219	     -7.91647689	    -51.21587976	     -3.69059770	    -14.68910901	      5.93239736	      9.73579036	      5.72010207	      7.08022042	     -5.55991531	     -0.65634687	    -15.31597582	      0.61745959	     -1.25794706	     -2.46862780	     -5.83363576
